<?xml version="1.0" encoding="utf-8"?>
<!-- Generator: Adobe Illustrator 19.1.0, SVG Export Plug-In . SVG Version: 6.00 Build 0)  -->
<svg version="1.1" xmlns="http://www.w3.org/2000/svg" xmlns:xlink="http://www.w3.org/1999/xlink" x="0px" y="0px"
	 viewBox="0 0 360 360" style="enable-background:new 0 0 360 360;" xml:space="preserve">
<style type="text/css">
	.st0{fill:none;stroke:#FFFFFF;stroke-width:13.0891;stroke-linejoin:bevel;stroke-miterlimit:10;}
	.st1{fill:#FFFFFF;}
	.st2{fill:none;stroke:#FFFFFF;stroke-width:9;stroke-miterlimit:10;}
	.st3{fill:none;stroke:#FFFFFF;stroke-width:9.1624;stroke-miterlimit:10;}
	.st4{fill:none;stroke:#FFFFFF;stroke-width:9.1624;stroke-linejoin:bevel;stroke-miterlimit:10;}
</style>
<g id="Layer_2">
	<circle cx="180" cy="180" r="180"/>
</g>
<g id="Layer_1">
	<rect x="78.9" y="63.8" class="st0" width="202.9" height="167"/>
	<rect x="116.4" y="94.4" class="st1" width="19.2" height="34.1"/>
	<rect x="116.4" y="156.7" class="st1" width="19.2" height="34.1"/>
	<path class="st2" d="M151.5,151.5l29-31.4v14.2c14,0,27.2,8.6,27.2,17.2"/>
	<path class="st3" d="M230.5,190.9c26.8-30,24.3-69.2,0-96.4"/>
	<g>
		<polygon class="st4" points="282.3,294.3 79.4,294.3 105.9,249 254.7,249 		"/>
		<line class="st2" x1="97" y1="262.5" x2="263" y2="262.5"/>
		<line class="st2" x1="89" y1="278.5" x2="274" y2="278.5"/>
		<line class="st2" x1="180.5" y1="251" x2="180.5" y2="297"/>
		<line class="st3" x1="221" y1="250.6" x2="230.5" y2="294.3"/>
		<line class="st3" x1="145.4" y1="250.6" x2="136" y2="294.3"/>
	</g>
</g>
</svg>
