<?xml version="1.0" encoding="utf-8"?>
<!-- Generator: Adobe Illustrator 19.1.0, SVG Export Plug-In . SVG Version: 6.00 Build 0)  -->
<svg version="1.1" xmlns="http://www.w3.org/2000/svg" xmlns:xlink="http://www.w3.org/1999/xlink" x="0px" y="0px"
	 viewBox="0 0 720 360" style="enable-background:new 0 0 720 360;" xml:space="preserve">
<style type="text/css">
	.st0{display:none;}
	.st1{display:inline;fill:#41A8C6;}
	.st2{fill:#4CA8C7;}
</style>
<g id="Layer_4" class="st0">
	<rect class="st1" width="720" height="360"/>
</g>
<g id="Layer_2">
	<path class="st2" d="M540,360c99.4,0,180-80.6,180-180S639.4,0,540,0H180v360H540z"/>
	<circle cx="180" cy="180" r="180"/>
	<circle class="st2" cx="180" cy="180" r="149"/>
</g>
<g id="Layer_5">
	<g>
		<path d="M200.9,71h-67.6C38.5,71,14,217.8,113,236.5V295h81v-55.9c42-3.4,33.6-14.1,33.6-55.1h21.7L200.9,71z"/>
		<circle class="st2" cx="183.5" cy="146.9" r="20.4"/>
		<path d="M229,295h31v-56.5c16,0,29.4-1.4,32.9-20.2l0.3-35.2h23L265.9,71H234l48.9,112H260v35.4c-1,9.8-1,20.1-31,19V295z"/>
	</g>
</g>
</svg>
