<?xml version="1.0" encoding="utf-8"?>
<!-- Generator: Adobe Illustrator 19.1.0, SVG Export Plug-In . SVG Version: 6.00 Build 0)  -->
<svg version="1.1" xmlns="http://www.w3.org/2000/svg" xmlns:xlink="http://www.w3.org/1999/xlink" x="0px" y="0px"
	 viewBox="0 0 360 360" style="enable-background:new 0 0 360 360;" xml:space="preserve">
<style type="text/css">
	.st0{fill:none;stroke:#FFFFFF;stroke-width:10;stroke-linejoin:bevel;stroke-miterlimit:10;}
	.st1{fill:#FFFFFF;}
	.st2{fill:none;stroke:#FFFFFF;stroke-width:7;stroke-miterlimit:10;}
	.st3{fill:none;stroke:#FFFFFF;stroke-width:7;stroke-linejoin:bevel;stroke-miterlimit:10;}
	.st4{fill:none;stroke:#FFFFFF;stroke-width:20;stroke-miterlimit:10;}
</style>
<g id="Layer_2">
	<circle cx="180" cy="180" r="180"/>
</g>
<g id="Layer_1">
	<rect x="68.9" y="87.3" class="st0" width="155" height="127.6"/>
	<rect x="243.8" y="87.3" class="st0" width="49.2" height="174.1"/>
	<rect x="97.6" y="110.7" class="st1" width="14.7" height="26.1"/>
	<rect x="97.6" y="158.3" class="st1" width="14.7" height="26.1"/>
	<path class="st2" d="M124.3,154.3l22.2-24v10.8c10,0,20.8,6.6,20.8,13.2"/>
	<path class="st2" d="M199.4,184.3c-20.5-22.9-18.6-52.9,0-73.7"/>
	<g>
		<polygon class="st3" points="224.3,263.3 69.3,263.3 89.6,228.8 203.2,228.8 		"/>
		<line class="st2" x1="83" y1="239.5" x2="210" y2="239.5"/>
		<line class="st2" x1="76" y1="251.5" x2="218" y2="251.5"/>
		<line class="st2" x1="146.5" y1="230" x2="146.5" y2="265"/>
		<line class="st2" x1="177.5" y1="230" x2="184.7" y2="263.3"/>
		<line class="st2" x1="119.7" y1="230" x2="112.5" y2="263.3"/>
	</g>
</g>
<g id="Layer_3">
	<line class="st4" x1="307.3" y1="52.7" x2="52.7" y2="307.3"/>
</g>
</svg>
