<?xml version="1.0" encoding="utf-8"?>
<!-- Generator: Adobe Illustrator 19.1.0, SVG Export Plug-In . SVG Version: 6.00 Build 0)  -->
<svg version="1.1" xmlns="http://www.w3.org/2000/svg" xmlns:xlink="http://www.w3.org/1999/xlink" x="0px" y="0px"
	 viewBox="0 0 720 360" style="enable-background:new 0 0 720 360;" xml:space="preserve">
<style type="text/css">
	.st0{display:none;}
	.st1{display:inline;fill:#41A8C6;}
	.st2{fill:#FFFFFF;}
</style>
<g id="Layer_4" class="st0">
	<rect class="st1" width="720" height="360"/>
</g>
<g id="Layer_2">
	<path class="st2" d="M540,360c99.4,0,180-80.6,180-180S639.4,0,540,0H180v360H540z"/>
	<circle cx="180" cy="180" r="180"/>
	<circle class="st2" cx="180" cy="180" r="161.4"/>
</g>
<g id="Layer_5">
	<g>
		<path d="M202.4,61h-73.3C26.2,61,0,220.8,107,241.1V305h88v-61.1c45-3.7,36.5-14.9,36.5-59.9H255L202.4,61z"/>
		<circle class="st2" cx="183.5" cy="143.8" r="22.1"/>
		<path d="M233,305h34v-61.8c17,0,31.7-1.6,35.5-22l0.1-38.2h24.9L273,61h-34.6l53,122H267v38.4c-2,10.6-2,21.8-34,20.6V305z"/>
	</g>
</g>
</svg>
